<svg width="16" height="21" viewBox="0 0 16 21" fill="none" xmlns="http://www.w3.org/2000/svg">
<path d="M8.64242 0.0260859C8.21586 -0.00869531 7.77223 -0.00869531 7.34501 0.0260859C4.93854 0.221648 2.8707 1.5709 1.67239 3.72668C0.42617 5.9704 0.378263 8.66234 1.57329 10.9782L6.86267 19.4124C7.10811 19.8048 7.53204 20.0384 7.9947 20.0384C8.45736 20.0384 8.88129 19.8048 9.12739 19.4124L14.4161 10.9782C14.4259 10.9631 14.4345 10.9461 14.443 10.9303C15.6105 8.66299 15.5632 5.9704 14.317 3.72668C13.1174 1.5709 11.0495 0.221648 8.64242 0.0260859ZM13.288 10.3043L7.97436 18.7148L2.71254 10.3292C1.74654 8.45365 1.78723 6.22371 2.81951 4.36455C3.80126 2.59859 5.48914 1.49412 7.45198 1.3353C7.63048 1.32021 7.81161 1.31234 7.99404 1.31234C8.17648 1.31234 8.35761 1.32021 8.53611 1.33465C10.4983 1.49346 12.1868 2.59793 13.1686 4.3639C14.1963 6.21518 14.2409 8.4333 13.288 10.3043Z" fill="#222222"/>
<path d="M7.99431 3.64722C6.13975 3.64722 4.63037 5.15659 4.63037 7.01115C4.63037 8.86572 6.13975 10.3751 7.99431 10.3751C9.84887 10.3751 11.3582 8.86572 11.3582 7.01115C11.3582 5.15659 9.84887 3.64722 7.99431 3.64722ZM7.99431 9.06259C6.86293 9.06259 5.94287 8.14253 5.94287 7.01115C5.94287 5.87978 6.86293 4.95972 7.99431 4.95972C9.12568 4.95972 10.0457 5.87978 10.0457 7.01115C10.0457 8.14253 9.12568 9.06259 7.99431 9.06259Z" fill="#222222"/>
</svg>
